<?xml version="1.0" standalone="no"?>
<!DOCTYPE svg PUBLIC "-//W3C//DTD SVG 20010904//EN"
 "http://www.w3.org/TR/2001/REC-SVG-20010904/DTD/svg10.dtd">
<svg version="1.0" xmlns="http://www.w3.org/2000/svg"
 width="260.000000pt" height="260.000000pt" viewBox="0 0 260.000000 260.000000"
 preserveAspectRatio="xMidYMid meet">
<metadata>
Created by potrace 1.11, written by Peter Selinger 2001-2013
</metadata>
<g transform="translate(0.000000,260.000000) scale(0.100000,-0.100000)"
fill="#000000" stroke="none">
<path d="M0 1300 l0 -1300 298 0 297 0 0 824 c0 454 2 822 4 820 6 -5 6 -10
21 -119 12 -87 18 -127 25 -165 2 -14 7 -49 10 -79 4 -30 8 -63 10 -73 2 -11
9 -54 15 -96 6 -42 13 -86 14 -97 2 -11 7 -47 10 -80 4 -33 9 -67 11 -75 2 -8
7 -35 10 -60 3 -25 8 -56 10 -70 2 -14 7 -45 10 -70 3 -25 8 -56 10 -70 2 -14
7 -45 10 -70 3 -25 15 -103 25 -175 11 -71 22 -146 24 -165 5 -40 14 -101 22
-147 l5 -33 214 0 215 0 1 28 c0 15 2 36 5 47 2 11 6 45 9 75 3 30 8 62 10 70
2 8 7 40 10 70 3 30 8 67 11 81 2 15 6 47 9 70 3 24 8 56 10 70 5 27 8 52 20
154 4 33 9 67 10 76 2 9 6 40 10 70 3 30 8 65 11 79 2 14 6 45 9 70 3 25 7 60
10 78 2 18 7 52 10 75 3 23 8 53 10 67 2 14 7 50 10 80 4 30 8 66 10 80 6 36
26 189 31 225 10 86 17 130 20 134 2 2 4 -379 4 -848 l0 -851 550 1 550 1 -1
279 c-1 170 -5 279 -11 279 -5 0 -6 -4 -3 -10 3 -5 1 -10 -4 -10 -15 0 -14 27
2 34 6 3 1 3 -13 -1 -21 -5 -23 -4 -13 9 10 12 10 15 -1 15 -9 0 -13 -10 -11
-31 2 -17 1 -23 -1 -13 -3 9 -12 17 -20 17 -8 0 -14 5 -14 11 0 5 5 7 12 3 6
-4 8 -3 5 4 -12 18 -41 6 -62 -26 -11 -17 -24 -31 -28 -32 -5 0 -6 4 -2 9 3 5
1 12 -5 16 -11 7 -4 25 10 25 5 0 7 -8 3 -17 -8 -22 1 -15 15 12 10 19 7 20
-62 20 -50 0 -79 -5 -91 -15 -17 -14 -18 -13 -12 3 5 15 4 16 -13 7 -22 -12
-33 -13 -27 -2 3 4 -21 7 -53 7 -32 0 -56 -4 -53 -8 3 -5 11 -6 19 -3 21 8 17
-8 -8 -30 -12 -10 -18 -13 -14 -7 8 14 -17 57 -27 46 -10 -10 -8 -25 2 -18 17
10 20 -10 4 -30 -13 -17 -15 -17 -10 -2 4 10 1 20 -6 22 -9 4 -12 224 -12
1020 l0 1015 -442 0 c-244 0 -443 -3 -444 -7 0 -5 -2 -17 -4 -28 -2 -11 -8
-60 -15 -110 -6 -49 -13 -101 -15 -115 -2 -14 -6 -50 -10 -80 -4 -30 -8 -66
-10 -80 -2 -14 -9 -65 -15 -115 -13 -110 -13 -109 -55 -430 -2 -16 -7 -57 -11
-90 -4 -33 -8 -67 -10 -75 -1 -8 -3 -26 -3 -39 -1 -36 -8 -22 -15 29 -4 25 -9
56 -11 70 -2 14 -7 43 -10 65 -4 35 -23 166 -56 395 -18 123 -20 139 -24 172
-2 18 -6 49 -9 68 -3 19 -8 55 -11 80 -8 63 -34 229 -41 263 l-6 27 -439 0
-439 0 0 -1300z m2273 -727 c3 8 7 6 12 -6 5 -11 3 -23 -4 -30 -9 -9 -11 -8
-6 4 4 10 0 16 -10 16 -8 0 -15 -4 -15 -9 0 -4 -5 -8 -11 -8 -5 0 -8 4 -4 9 3
5 1 12 -4 15 -5 4 -13 -3 -16 -15 -6 -19 -7 -20 -20 -2 -15 21 -9 37 11 29 8
-3 14 0 14 5 0 7 10 5 24 -5 18 -11 26 -12 29 -3z m144 3 c-2 -6 -9 -12 -17
-14 -8 -3 -10 0 -5 8 5 9 4 11 -4 6 -9 -6 -9 -11 0 -22 10 -12 9 -13 -5 -8 -9
3 -16 10 -16 15 0 5 -5 9 -11 9 -6 0 -9 -7 -5 -15 4 -13 2 -14 -14 -5 -11 6
-25 8 -30 5 -13 -8 -13 8 1 22 12 12 110 12 106 -1z m105 -26 c4 0 8 -4 8 -10
0 -5 -13 -1 -29 8 -24 13 -27 19 -18 30 9 12 13 11 21 -7 5 -12 13 -21 18 -21z"/>
</g>
</svg>
