<?xml version="1.0" standalone="no"?>
<!DOCTYPE svg PUBLIC "-//W3C//DTD SVG 20010904//EN"
 "http://www.w3.org/TR/2001/REC-SVG-20010904/DTD/svg10.dtd">
<svg version="1.0" xmlns="http://www.w3.org/2000/svg"
 width="260.000000pt" height="260.000000pt" viewBox="0 0 260.000000 260.000000"
 preserveAspectRatio="xMidYMid meet">
<metadata>
Created by potrace 1.14, written by Peter Selinger 2001-2017
</metadata>
<g transform="translate(0.000000,260.000000) scale(0.100000,-0.100000)"
fill="#000000" stroke="none">
<path d="M420 1320 l0 -510 100 0 100 0 0 375 c0 229 4 375 9 375 6 0 40 -39
78 -87 37 -49 70 -90 73 -93 3 -3 52 -64 108 -135 71 -92 108 -131 122 -131
12 0 19 5 16 13 -3 7 0 12 6 10 6 -1 86 91 177 204 306 380 334 414 344 414 5
0 19 -25 32 -55 12 -30 70 -156 129 -279 58 -124 106 -229 106 -233 0 -4 -103
-8 -229 -8 l-230 0 -62 -77 c-77 -95 -73 -90 -112 -134 -18 -20 -54 -64 -80
-98 l-48 -61 118 0 c112 0 119 1 132 22 8 13 41 58 75 100 l61 77 231 0 231 1
47 -100 47 -100 80 0 c43 0 79 3 79 6 0 3 -13 44 -30 90 -16 47 -37 115 -45
152 -9 36 -45 127 -82 202 -36 74 -74 153 -84 175 -10 22 -24 51 -32 65 -29
50 -107 218 -107 229 0 6 -5 11 -11 11 -5 0 -8 4 -4 9 3 5 -3 17 -12 27 -10
10 -17 19 -16 21 1 1 0 10 -3 18 -5 13 -35 15 -193 15 l-186 -1 -59 -76 c-33
-41 -59 -81 -59 -89 0 -7 -3 -11 -7 -9 -9 6 -183 -215 -183 -232 0 -7 -4 -10
-9 -7 -4 3 -8 0 -8 -5 0 -15 -19 -14 -34 2 -6 6 -41 50 -76 96 -137 176 -153
196 -161 194 -5 -2 -8 2 -6 7 1 6 -16 35 -38 65 l-40 54 -127 1 -128 0 0 -510z"/>
</g>
</svg>
