<?xml version="1.0" standalone="no"?>
<!DOCTYPE svg PUBLIC "-//W3C//DTD SVG 20010904//EN"
 "http://www.w3.org/TR/2001/REC-SVG-20010904/DTD/svg10.dtd">
<svg version="1.0" xmlns="http://www.w3.org/2000/svg"
 width="500.000000pt" height="500.000000pt" viewBox="0 0 500.000000 500.000000"
 preserveAspectRatio="xMidYMid meet">
<metadata>
Created by potrace 1.14, written by Peter Selinger 2001-2017
</metadata>
<g transform="translate(0.000000,500.000000) scale(0.100000,-0.100000)"
fill="#000000" stroke="none">
<path d="M1811 3126 l-1 -256 485 0 485 0 1 -27 c0 -16 2 -154 2 -308 l2 -280
252 -1 c220 0 252 2 255 15 2 9 3 135 2 281 -1 237 -4 273 -23 343 -60 220
-208 378 -421 452 l-85 30 -477 3 -476 3 -1 -255z"/>
<path d="M4075 2772 c-27 -2 -53 -8 -56 -14 -4 -6 -7 -260 -7 -565 l0 -553 82
0 c125 0 223 37 301 113 71 69 129 194 127 272 -1 10 4 26 11 34 7 8 7 12 1 8
-11 -7 -12 82 0 101 3 6 2 13 -3 16 -10 7 -9 31 2 42 3 4 1 16 -5 28 -12 23
-12 24 5 45 9 12 9 13 0 7 -8 -4 -13 -1 -13 9 0 10 5 13 12 9 7 -5 8 -3 3 5
-10 18 -13 71 -3 77 5 3 5 11 1 17 -10 16 -11 67 -1 67 4 0 8 5 8 11 0 5 -4 8
-8 5 -5 -3 -8 10 -8 29 1 19 4 35 8 35 5 0 8 5 8 11 0 5 -4 8 -8 5 -5 -3 -8
10 -8 29 1 19 4 35 8 35 5 0 8 5 8 11 0 5 -4 8 -9 5 -5 -3 -7 16 -5 45 2 33
-1 51 -9 55 -15 5 -371 10 -442 6z"/>
<path d="M1602 2759 c-112 -14 -223 -99 -263 -201 -9 -24 -31 -119 -49 -213
-17 -93 -33 -176 -36 -182 -3 -10 -84 -13 -361 -14 -197 -1 -376 -2 -398 -3
l-40 -1 0 -255 0 -255 105 1 c58 1 278 2 490 3 379 2 386 2 443 25 76 31 117
64 156 124 27 43 59 140 74 228 13 71 48 228 52 233 3 2 207 5 453 5 l447 1 0
255 0 255 -510 0 c-280 0 -534 -3 -563 -6z"/>
<path d="M3402 2510 l3 -255 250 0 250 0 0 255 0 255 -253 0 -252 0 2 -255z"/>
<path d="M1810 1895 l0 -255 1050 0 1050 0 0 255 0 255 -1050 0 -1050 0 0
-255z"/>
</g>
</svg>
